<svg width="47" height="47" viewBox="0 0 47 47" fill="none" xmlns="http://www.w3.org/2000/svg">
<rect width="46.0444" height="46.0444" rx="7.46667" fill="url(#paint0_linear_168_1580)"/>
<path d="M23.0215 17.5771V32.8216" stroke="white" stroke-width="1.24444" stroke-linecap="round" stroke-linejoin="round"/>
<path d="M13.2217 29.555C12.9329 29.555 12.6559 29.4403 12.4517 29.2361C12.2475 29.0319 12.1328 28.7549 12.1328 28.4661V14.3106C12.1328 14.0218 12.2475 13.7448 12.4517 13.5406C12.6559 13.3364 12.9329 13.2217 13.2217 13.2217H18.6661C19.8213 13.2217 20.9292 13.6806 21.746 14.4974C22.5628 15.3142 23.0217 16.4221 23.0217 17.5772C23.0217 16.4221 23.4806 15.3142 24.2974 14.4974C25.1142 13.6806 26.2221 13.2217 27.3773 13.2217H32.8217C33.1105 13.2217 33.3875 13.3364 33.5917 13.5406C33.7959 13.7448 33.9106 14.0218 33.9106 14.3106V28.4661C33.9106 28.7549 33.7959 29.0319 33.5917 29.2361C33.3875 29.4403 33.1105 29.555 32.8217 29.555H26.2884C25.422 29.555 24.5911 29.8992 23.9785 30.5118C23.3659 31.1244 23.0217 31.9553 23.0217 32.8217C23.0217 31.9553 22.6775 31.1244 22.0649 30.5118C21.4523 29.8992 20.6214 29.555 19.755 29.555H13.2217Z" stroke="white" stroke-width="1.24444" stroke-linecap="round" stroke-linejoin="round"/>
<defs>
<linearGradient id="paint0_linear_168_1580" x1="0" y1="0" x2="46.0444" y2="46.0444" gradientUnits="userSpaceOnUse">
<stop stop-color="#8C5AF2"/>
<stop offset="1" stop-color="#F5C73D"/>
</linearGradient>
</defs>
</svg>
